<svg width="661" height="149" viewBox="0 0 661 149" fill="none" xmlns="http://www.w3.org/2000/svg">
<path d="M0 50C0 22.3858 22.3858 0 50 0H611C638.614 0 661 22.3858 661 50V99C661 126.614 638.614 149 611 149H50C22.3857 149 0 126.614 0 99V50Z" fill="#18212A"/>
<rect x="2.5" y="2.5" width="169" height="144" fill="white" stroke="#18212A" stroke-width="5"/>
<path d="M63.4888 58.4821L54.4033 64.3931L46.5609 69.4954C45.9665 69.882 45.9522 70.7472 46.5334 71.1533L62.8384 82.5456" stroke="#18212A" stroke-width="8"/>
<path d="M101 82.0635L110.085 76.1525L117.928 71.0502C118.522 70.6636 118.537 69.7984 117.955 69.3923L101.65 58" stroke="#18212A" stroke-width="8"/>
<path d="M22.1099 24.5549H142.703C144.114 24.5549 145.258 25.6988 145.258 27.1099V67.5V109.89C145.258 111.301 144.114 112.445 142.703 112.445H83.264C81.1014 112.445 79.0394 113.359 77.5866 114.961L63.2547 130.762C62.2659 131.853 60.5629 131.884 59.5345 130.831L43.8314 114.754C42.3891 113.278 40.4123 112.445 38.3482 112.445H22.1099C20.6989 112.445 19.555 111.301 19.555 109.89V27.1099C19.555 25.6988 20.6989 24.5549 22.1099 24.5549Z" stroke="#18212A" stroke-width="5.10989"/>
<path d="M89 52.3518L85.5495 61.2153L81.8146 70.8176L75 88.3518" stroke="#18212A" stroke-width="8"/>
<path d="M212.125 85.4688C213.758 85.4688 214.426 86.9531 214.426 87.8438C214.426 89.5508 209.453 94.4492 202.18 94.4492C192.012 94.4492 185.926 85.6914 185.926 77.8242C185.926 70.1055 191.863 61.1992 202.18 61.1992C209.602 61.1992 214.426 66.1719 214.426 67.8047C214.426 68.6953 213.684 70.1797 212.051 70.1797C209.676 70.1797 208.637 65.9492 202.18 65.9492C194.906 65.9492 190.676 72.2578 190.676 77.8242C190.676 83.3164 194.832 89.6992 202.18 89.6992C208.711 89.625 209.75 85.4688 212.125 85.4688ZM242.777 91.1094C243.297 92.2969 242.703 93.707 241.516 94.2266C241.219 94.375 240.922 94.4492 240.625 94.4492C239.66 94.4492 238.77 93.8555 238.398 92.9648L236.023 87.3242H221.402L219.027 92.9648C218.508 94.1523 217.172 94.7461 215.91 94.2266C214.723 93.707 214.129 92.3711 214.648 91.1094L226.523 62.6094C226.895 61.7188 227.785 61.1992 228.75 61.1992C229.641 61.1992 230.531 61.7188 230.902 62.6094L242.777 91.1094ZM223.332 82.5H234.094L228.75 69.7344L223.332 82.5ZM276.25 63.5742V92.0742C276.25 93.3359 275.137 94.4492 273.875 94.4492C272.539 94.4492 271.5 93.3359 271.5 92.0742V71.3672L261.555 86.2109C260.664 87.5469 258.512 87.5469 257.621 86.2109L247.75 71.3672V92C247.75 93.3359 246.637 94.375 245.375 94.375C244.039 94.375 243 93.3359 243 92V63.5C243 62.4609 243.668 61.5703 244.633 61.2734C245.672 60.9766 246.711 61.3477 247.305 62.2383L259.625 80.6445L271.871 62.2383C272.465 61.3477 273.504 60.9766 274.543 61.2734C275.508 61.5703 276.25 62.4609 276.25 63.5742ZM300 92C300 93.3359 298.887 94.375 297.625 94.375H278.625C277.289 94.375 276.25 93.3359 276.25 92C276.25 90.7383 277.289 89.625 278.625 89.625H285.75V65.875H278.625C277.289 65.875 276.25 64.8359 276.25 63.5C276.25 62.2383 277.289 61.125 278.625 61.125H297.625C298.887 61.125 300 62.2383 300 63.5C300 64.8359 298.887 65.875 297.625 65.875H290.5V89.625H297.625C298.887 89.625 300 90.7383 300 92ZM323.75 92C323.75 93.3359 322.637 94.375 321.375 94.375H304.75C303.414 94.375 302.375 93.3359 302.375 92V63.5C302.375 62.2383 303.414 61.1992 304.75 61.1992C306.012 61.1992 307.125 62.2383 307.125 63.5742V89.6992H321.375C322.637 89.625 323.75 90.7383 323.75 92ZM340.375 61.1992C349.504 61.1992 357 68.6211 357 77.8242C357 86.9531 349.504 94.4492 340.375 94.4492C331.172 94.4492 323.75 86.9531 323.75 77.8242C323.75 68.6211 331.172 61.1992 340.375 61.1992ZM340.375 89.625C346.906 89.625 352.25 84.2812 352.25 77.75C352.25 71.293 346.906 65.9492 340.375 65.9492C333.77 65.9492 328.5 71.2188 328.5 77.75C328.5 84.3555 333.77 89.625 340.375 89.625ZM397.375 85.4688C399.008 85.4688 399.676 86.9531 399.676 87.8438C399.676 89.5508 394.703 94.4492 387.43 94.4492C377.262 94.4492 371.176 85.6914 371.176 77.8242C371.176 70.1055 377.113 61.1992 387.43 61.1992C394.852 61.1992 399.676 66.1719 399.676 67.8047C399.676 68.6953 398.934 70.1797 397.301 70.1797C394.926 70.1797 393.887 65.9492 387.43 65.9492C380.156 65.9492 375.926 72.2578 375.926 77.8242C375.926 83.3164 380.082 89.6992 387.43 89.6992C393.961 89.625 395 85.4688 397.375 85.4688ZM428.25 63.5742V80.2734C428.25 87.9922 421.793 94.4492 414 94.4492C406.133 94.4492 399.75 88.0664 399.75 80.2734V63.5742C399.75 62.2383 400.789 61.1992 402.125 61.1992C403.387 61.1992 404.5 62.2383 404.5 63.5742V80.2734C404.5 85.4688 408.73 89.6992 414 89.6992C419.195 89.6992 423.5 85.4688 423.5 80.2734V63.5742C423.5 62.2383 424.539 61.1992 425.875 61.1992C427.137 61.1992 428.25 62.2383 428.25 63.5742ZM452 92C452 93.3359 450.887 94.375 449.625 94.375H430.625C429.289 94.375 428.25 93.3359 428.25 92V63.5C428.25 62.2383 429.289 61.1992 430.625 61.1992H449.625C450.887 61.1992 452 62.2383 452 63.5742C452 64.8359 450.887 65.9492 449.625 65.9492H433V75.4492H444.875C446.137 75.4492 447.25 76.4883 447.25 77.75C447.25 79.0859 446.137 80.1992 444.875 80.1992H433V89.6992H449.625C450.887 89.625 452 90.7383 452 92ZM480.5 63.5742V92.0742C480.5 93.0391 479.832 93.9297 478.867 94.3008C478.645 94.375 478.348 94.375 478.125 94.375C477.383 94.375 476.715 94.0781 476.27 93.5586L456.75 70.1055V92C456.75 93.3359 455.637 94.375 454.375 94.375C453.039 94.375 452 93.3359 452 92V63.5C452 62.5352 452.594 61.6445 453.559 61.2734C454.449 60.9766 455.488 61.2734 456.156 62.0156L475.75 85.4688V63.5C475.75 62.2383 476.789 61.125 478.125 61.125C479.387 61.125 480.5 62.2383 480.5 63.5742ZM506.625 85.4688C508.258 85.4688 508.926 86.9531 508.926 87.8438C508.926 89.5508 503.953 94.4492 496.68 94.4492C486.512 94.4492 480.426 85.6914 480.426 77.8242C480.426 70.1055 486.363 61.1992 496.68 61.1992C504.102 61.1992 508.926 66.1719 508.926 67.8047C508.926 68.6953 508.184 70.1797 506.551 70.1797C504.176 70.1797 503.137 65.9492 496.68 65.9492C489.406 65.9492 485.176 72.2578 485.176 77.8242C485.176 83.3164 489.332 89.6992 496.68 89.6992C503.211 89.625 504.25 85.4688 506.625 85.4688ZM537.277 91.1094C537.797 92.2969 537.203 93.707 536.016 94.2266C535.719 94.375 535.422 94.4492 535.125 94.4492C534.16 94.4492 533.27 93.8555 532.898 92.9648L530.523 87.3242H515.902L513.527 92.9648C513.008 94.1523 511.672 94.7461 510.41 94.2266C509.223 93.707 508.629 92.3711 509.148 91.1094L521.023 62.6094C521.395 61.7188 522.285 61.1992 523.25 61.1992C524.141 61.1992 525.031 61.7188 525.402 62.6094L537.277 91.1094ZM517.832 82.5H528.594L523.25 69.7344L517.832 82.5Z" fill="white"/>
<path d="M574 69.1875C574.562 69.75 574.938 70.5 574.938 71.625V84.5625C574.938 85.6875 574.75 86.625 574 87.1875C573.25 87.5625 572.5 87.9375 571.75 87.9375H568.562V68.25H571.75C572.5 68.25 573.25 68.625 574 69.1875ZM627.25 36C631.75 36 635.312 39.75 635.5 44.25V111.938C635.312 116.438 631.75 120 627.25 120H559.562C555.062 120 551.5 116.438 551.5 111.938V44.25C551.5 39.75 555.062 36 559.562 36H627.25ZM580.375 84.75V71.4375C580.375 67.875 578.125 62.4375 571.375 62.4375H562.562V93.5625H571.188C578.125 93.5625 580.375 88.125 580.375 84.75ZM599.125 68.0625V62.625H587.312C585.25 62.625 583.562 64.3125 583.562 66.375V89.8125C583.75 91.875 585.438 93.5625 587.5 93.5625H599.125V87.9375H589.188V80.8125H595.375V75.1875H589.188V68.0625H599.125ZM618.625 89.625L625.75 62.625H619.75L614.125 83.8125L608.688 62.625H602.5L609.812 89.625C611.688 94.3125 616.188 95.4375 618.625 89.625Z" fill="white"/>
</svg>
